<mxfile host="app.diagrams.net" modified="2024-05-13T18:29:45.431Z" agent="Mozilla/5.0 (Windows NT 10.0; Win64; x64) AppleWebKit/537.36 (KHTML, like Gecko) Chrome/124.0.0.0 Safari/537.36" etag="LbbZaIqvT6EQahE7Bx0O" version="24.4.0" type="github">
  <diagram id="C5RBs43oDa-KdzZeNtuy" name="Page-1">
    <mxGraphModel dx="1434" dy="746" grid="1" gridSize="10" guides="1" tooltips="1" connect="1" arrows="1" fold="1" page="1" pageScale="1" pageWidth="827" pageHeight="1169" math="0" shadow="0">
      <root>
        <mxCell id="WIyWlLk6GJQsqaUBKTNV-0" />
        <mxCell id="WIyWlLk6GJQsqaUBKTNV-1" parent="WIyWlLk6GJQsqaUBKTNV-0" />
        <mxCell id="q4yJidVWy0GGUAA_eL6E-25" style="edgeStyle=orthogonalEdgeStyle;rounded=0;orthogonalLoop=1;jettySize=auto;html=1;exitX=1;exitY=0.5;exitDx=0;exitDy=0;" edge="1" parent="WIyWlLk6GJQsqaUBKTNV-1" source="WIyWlLk6GJQsqaUBKTNV-7">
          <mxGeometry relative="1" as="geometry">
            <mxPoint x="360" y="420" as="targetPoint" />
          </mxGeometry>
        </mxCell>
        <mxCell id="WIyWlLk6GJQsqaUBKTNV-7" value="Transform data into datasets" style="rounded=1;whiteSpace=wrap;html=1;fontSize=12;glass=0;strokeWidth=1;shadow=0;" parent="WIyWlLk6GJQsqaUBKTNV-1" vertex="1">
          <mxGeometry x="200" y="400" width="120" height="40" as="geometry" />
        </mxCell>
        <mxCell id="q4yJidVWy0GGUAA_eL6E-24" style="edgeStyle=orthogonalEdgeStyle;rounded=0;orthogonalLoop=1;jettySize=auto;html=1;exitX=1;exitY=0.5;exitDx=0;exitDy=0;entryX=0;entryY=0.5;entryDx=0;entryDy=0;" edge="1" parent="WIyWlLk6GJQsqaUBKTNV-1" source="WIyWlLk6GJQsqaUBKTNV-12" target="WIyWlLk6GJQsqaUBKTNV-7">
          <mxGeometry relative="1" as="geometry" />
        </mxCell>
        <mxCell id="WIyWlLk6GJQsqaUBKTNV-12" value="Request data from API" style="rounded=1;whiteSpace=wrap;html=1;fontSize=12;glass=0;strokeWidth=1;shadow=0;" parent="WIyWlLk6GJQsqaUBKTNV-1" vertex="1">
          <mxGeometry x="40" y="400" width="120" height="40" as="geometry" />
        </mxCell>
        <mxCell id="q4yJidVWy0GGUAA_eL6E-2" value="Python" style="swimlane;whiteSpace=wrap;html=1;startSize=30;" vertex="1" parent="WIyWlLk6GJQsqaUBKTNV-1">
          <mxGeometry x="40" width="200" height="240" as="geometry" />
        </mxCell>
        <mxCell id="q4yJidVWy0GGUAA_eL6E-7" value="Pobieranie danych z API" style="text;html=1;align=center;verticalAlign=middle;resizable=0;points=[];autosize=1;strokeColor=none;fillColor=none;" vertex="1" parent="q4yJidVWy0GGUAA_eL6E-2">
          <mxGeometry x="25" y="30" width="150" height="30" as="geometry" />
        </mxCell>
        <mxCell id="q4yJidVWy0GGUAA_eL6E-9" value="Przetworzenie danych" style="text;html=1;align=center;verticalAlign=middle;resizable=0;points=[];autosize=1;strokeColor=none;fillColor=none;" vertex="1" parent="q4yJidVWy0GGUAA_eL6E-2">
          <mxGeometry x="30" y="60" width="140" height="30" as="geometry" />
        </mxCell>
        <mxCell id="q4yJidVWy0GGUAA_eL6E-10" value="Wyciągnięcie danych nt. sędziów" style="text;html=1;align=center;verticalAlign=middle;resizable=0;points=[];autosize=1;strokeColor=none;fillColor=none;" vertex="1" parent="q4yJidVWy0GGUAA_eL6E-2">
          <mxGeometry y="90" width="200" height="30" as="geometry" />
        </mxCell>
        <mxCell id="q4yJidVWy0GGUAA_eL6E-11" value="Zapis danych do PostgreSQL" style="text;html=1;align=center;verticalAlign=middle;resizable=0;points=[];autosize=1;strokeColor=none;fillColor=none;" vertex="1" parent="q4yJidVWy0GGUAA_eL6E-2">
          <mxGeometry x="10" y="120" width="180" height="30" as="geometry" />
        </mxCell>
        <mxCell id="q4yJidVWy0GGUAA_eL6E-21" value="Analiza danych" style="text;html=1;align=center;verticalAlign=middle;resizable=0;points=[];autosize=1;strokeColor=none;fillColor=none;" vertex="1" parent="q4yJidVWy0GGUAA_eL6E-2">
          <mxGeometry x="50" y="150" width="100" height="30" as="geometry" />
        </mxCell>
        <mxCell id="q4yJidVWy0GGUAA_eL6E-22" value="Szukanie trendów" style="text;html=1;align=center;verticalAlign=middle;resizable=0;points=[];autosize=1;strokeColor=none;fillColor=none;" vertex="1" parent="q4yJidVWy0GGUAA_eL6E-2">
          <mxGeometry x="40" y="180" width="120" height="30" as="geometry" />
        </mxCell>
        <mxCell id="q4yJidVWy0GGUAA_eL6E-23" value="Przewidywanie kursów" style="text;html=1;align=center;verticalAlign=middle;resizable=0;points=[];autosize=1;strokeColor=none;fillColor=none;" vertex="1" parent="q4yJidVWy0GGUAA_eL6E-2">
          <mxGeometry x="30" y="210" width="140" height="30" as="geometry" />
        </mxCell>
        <mxCell id="q4yJidVWy0GGUAA_eL6E-3" value="PostgreSQL" style="swimlane;whiteSpace=wrap;html=1;startSize=30;" vertex="1" parent="WIyWlLk6GJQsqaUBKTNV-1">
          <mxGeometry x="240" width="200" height="90" as="geometry" />
        </mxCell>
        <mxCell id="q4yJidVWy0GGUAA_eL6E-13" value="Stworzenie bazy danych w AWS" style="text;html=1;align=center;verticalAlign=middle;resizable=0;points=[];autosize=1;strokeColor=none;fillColor=none;" vertex="1" parent="q4yJidVWy0GGUAA_eL6E-3">
          <mxGeometry y="30" width="200" height="30" as="geometry" />
        </mxCell>
        <mxCell id="q4yJidVWy0GGUAA_eL6E-14" value="Tworzenie widoków" style="text;html=1;align=center;verticalAlign=middle;resizable=0;points=[];autosize=1;strokeColor=none;fillColor=none;" vertex="1" parent="q4yJidVWy0GGUAA_eL6E-3">
          <mxGeometry x="35" y="60" width="130" height="30" as="geometry" />
        </mxCell>
        <mxCell id="q4yJidVWy0GGUAA_eL6E-4" value="Apache Airflow" style="swimlane;whiteSpace=wrap;html=1;startSize=30;" vertex="1" parent="WIyWlLk6GJQsqaUBKTNV-1">
          <mxGeometry x="440" width="200" height="150" as="geometry" />
        </mxCell>
        <mxCell id="q4yJidVWy0GGUAA_eL6E-15" value="Pobieranie danych pt, sob, ndz" style="text;html=1;align=center;verticalAlign=middle;resizable=0;points=[];autosize=1;strokeColor=none;fillColor=none;" vertex="1" parent="q4yJidVWy0GGUAA_eL6E-4">
          <mxGeometry x="5" y="30" width="190" height="30" as="geometry" />
        </mxCell>
        <mxCell id="q4yJidVWy0GGUAA_eL6E-16" value="Przetwarzanie danych" style="text;html=1;align=center;verticalAlign=middle;resizable=0;points=[];autosize=1;strokeColor=none;fillColor=none;" vertex="1" parent="q4yJidVWy0GGUAA_eL6E-4">
          <mxGeometry x="30" y="60" width="140" height="30" as="geometry" />
        </mxCell>
        <mxCell id="q4yJidVWy0GGUAA_eL6E-17" value="Analiza danych" style="text;html=1;align=center;verticalAlign=middle;resizable=0;points=[];autosize=1;strokeColor=none;fillColor=none;" vertex="1" parent="q4yJidVWy0GGUAA_eL6E-4">
          <mxGeometry x="50" y="90" width="100" height="30" as="geometry" />
        </mxCell>
        <mxCell id="q4yJidVWy0GGUAA_eL6E-18" value="Zapis danych i analizy do bazy" style="text;html=1;align=center;verticalAlign=middle;resizable=0;points=[];autosize=1;strokeColor=none;fillColor=none;" vertex="1" parent="q4yJidVWy0GGUAA_eL6E-4">
          <mxGeometry x="5" y="120" width="190" height="30" as="geometry" />
        </mxCell>
        <mxCell id="q4yJidVWy0GGUAA_eL6E-5" value="Flask" style="swimlane;whiteSpace=wrap;html=1;startSize=30;" vertex="1" parent="WIyWlLk6GJQsqaUBKTNV-1">
          <mxGeometry x="640" width="200" height="90" as="geometry" />
        </mxCell>
        <mxCell id="q4yJidVWy0GGUAA_eL6E-19" value="Wyświetlanie raportów" style="text;html=1;align=center;verticalAlign=middle;resizable=0;points=[];autosize=1;strokeColor=none;fillColor=none;" vertex="1" parent="q4yJidVWy0GGUAA_eL6E-5">
          <mxGeometry x="30" y="30" width="140" height="30" as="geometry" />
        </mxCell>
        <mxCell id="q4yJidVWy0GGUAA_eL6E-20" value="Wyświetlanie analiz" style="text;html=1;align=center;verticalAlign=middle;resizable=0;points=[];autosize=1;strokeColor=none;fillColor=none;" vertex="1" parent="q4yJidVWy0GGUAA_eL6E-5">
          <mxGeometry x="35" y="60" width="130" height="30" as="geometry" />
        </mxCell>
        <mxCell id="q4yJidVWy0GGUAA_eL6E-28" style="edgeStyle=orthogonalEdgeStyle;rounded=0;orthogonalLoop=1;jettySize=auto;html=1;exitX=1;exitY=0.5;exitDx=0;exitDy=0;" edge="1" parent="WIyWlLk6GJQsqaUBKTNV-1" source="q4yJidVWy0GGUAA_eL6E-26" target="q4yJidVWy0GGUAA_eL6E-27">
          <mxGeometry relative="1" as="geometry" />
        </mxCell>
        <mxCell id="q4yJidVWy0GGUAA_eL6E-26" value="Send data to PostgreSQL" style="rounded=1;whiteSpace=wrap;html=1;fontSize=12;glass=0;strokeWidth=1;shadow=0;" vertex="1" parent="WIyWlLk6GJQsqaUBKTNV-1">
          <mxGeometry x="360" y="400" width="120" height="40" as="geometry" />
        </mxCell>
        <mxCell id="q4yJidVWy0GGUAA_eL6E-29" style="edgeStyle=orthogonalEdgeStyle;rounded=0;orthogonalLoop=1;jettySize=auto;html=1;" edge="1" parent="WIyWlLk6GJQsqaUBKTNV-1" source="q4yJidVWy0GGUAA_eL6E-27">
          <mxGeometry relative="1" as="geometry">
            <mxPoint x="680" y="420" as="targetPoint" />
          </mxGeometry>
        </mxCell>
        <mxCell id="q4yJidVWy0GGUAA_eL6E-27" value="Analyze data" style="rounded=1;whiteSpace=wrap;html=1;fontSize=12;glass=0;strokeWidth=1;shadow=0;" vertex="1" parent="WIyWlLk6GJQsqaUBKTNV-1">
          <mxGeometry x="520" y="400" width="120" height="40" as="geometry" />
        </mxCell>
        <mxCell id="q4yJidVWy0GGUAA_eL6E-30" value="Analyze data" style="rounded=1;whiteSpace=wrap;html=1;fontSize=12;glass=0;strokeWidth=1;shadow=0;" vertex="1" parent="WIyWlLk6GJQsqaUBKTNV-1">
          <mxGeometry x="680" y="400" width="120" height="40" as="geometry" />
        </mxCell>
      </root>
    </mxGraphModel>
  </diagram>
</mxfile>
